<svg width="469" height="44" viewBox="0 0 469 44" fill="none" xmlns="http://www.w3.org/2000/svg">
<path d="M467.768 20.7678C468.744 19.7915 468.744 18.2085 467.768 17.2322L451.858 1.32233C450.882 0.34602 449.299 0.34602 448.322 1.32233C447.346 2.29864 447.346 3.88155 448.322 4.85786L462.464 19L448.322 33.1421C447.346 34.1184 447.346 35.7014 448.322 36.6777C449.299 37.654 450.882 37.654 451.858 36.6777L467.768 20.7678ZM0 21.5H466V16.5H0V21.5Z" fill="#49A7CB"/>
<rect x="118" y="8" width="5" height="23" fill="#49A7CB"/>
<path d="M116.767 36.1818V42H115.886V37.0625H115.852L114.46 37.9716V37.1307L115.912 36.1818H116.767ZM120.548 36.1818V42H119.668V37.0625H119.634L118.241 37.9716V37.1307L119.693 36.1818H120.548ZM124.088 42.0795C123.681 42.0795 123.321 42.0095 123.009 41.8693C122.698 41.7292 122.455 41.536 122.278 41.2898C122.102 41.0436 122.015 40.7633 122.017 40.4489C122.015 40.2027 122.065 39.9763 122.168 39.7699C122.272 39.5616 122.413 39.3883 122.591 39.25C122.769 39.1098 122.968 39.0208 123.188 38.983V38.9489C122.898 38.8788 122.666 38.7235 122.491 38.483C122.317 38.2424 122.231 37.9659 122.233 37.6534C122.231 37.3561 122.31 37.0909 122.469 36.858C122.63 36.6231 122.85 36.4384 123.131 36.304C123.411 36.1695 123.73 36.1023 124.088 36.1023C124.442 36.1023 124.759 36.1705 125.037 36.3068C125.317 36.4413 125.538 36.6259 125.699 36.8608C125.86 37.0937 125.941 37.358 125.943 37.6534C125.941 37.9659 125.852 38.2424 125.676 38.483C125.5 38.7235 125.271 38.8788 124.989 38.9489V38.983C125.206 39.0208 125.402 39.1098 125.577 39.25C125.753 39.3883 125.893 39.5616 125.997 39.7699C126.103 39.9763 126.157 40.2027 126.159 40.4489C126.157 40.7633 126.068 41.0436 125.892 41.2898C125.716 41.536 125.472 41.7292 125.159 41.8693C124.848 42.0095 124.491 42.0795 124.088 42.0795ZM124.088 41.3608C124.329 41.3608 124.537 41.321 124.713 41.2415C124.889 41.16 125.026 41.0473 125.122 40.9034C125.219 40.7576 125.268 40.5871 125.27 40.392C125.268 40.1894 125.215 40.0104 125.111 39.8551C125.009 39.6998 124.869 39.5777 124.693 39.4886C124.517 39.3996 124.315 39.3551 124.088 39.3551C123.859 39.3551 123.655 39.3996 123.477 39.4886C123.299 39.5777 123.159 39.6998 123.057 39.8551C122.955 40.0104 122.904 40.1894 122.906 40.392C122.904 40.5871 122.951 40.7576 123.045 40.9034C123.142 41.0473 123.279 41.16 123.457 41.2415C123.635 41.321 123.846 41.3608 124.088 41.3608ZM124.088 38.6534C124.281 38.6534 124.453 38.6146 124.602 38.5369C124.752 38.4593 124.869 38.3513 124.955 38.2131C125.042 38.0748 125.086 37.9129 125.088 37.7273C125.086 37.5455 125.043 37.3864 124.957 37.25C124.874 37.1136 124.758 37.0085 124.608 36.9347C124.458 36.8589 124.285 36.821 124.088 36.821C123.887 36.821 123.711 36.8589 123.56 36.9347C123.41 37.0085 123.294 37.1136 123.21 37.25C123.127 37.3864 123.086 37.5455 123.088 37.7273C123.086 37.9129 123.128 38.0748 123.213 38.2131C123.298 38.3513 123.416 38.4593 123.565 38.5369C123.717 38.6146 123.891 38.6534 124.088 38.6534Z" fill="white"/>
</svg>
